<svg xmlns="http://www.w3.org/2000/svg" xmlns:xlink="http://www.w3.org/1999/xlink" version="1.1" id="Layer_1" x="0px" y="0px" width="100px" height="100px" viewBox="0 0 100 100" fill="#cccccc" xml:space="preserve">
<path d="M37.056,5.146c-5.611,1.509-10.824,5.495-10.824,5.495c-4.788,4.067-8.418,9.11-10.828,14.682v-0.001  c0,0-13.375,3.868-15.405,14.783c0,0,10.481-3.946,11.918,2.22l0,0c-0.009,6.898,1.592,13.925,4.906,20.457  c5.853,11.537,16.234,19.263,27.884,22.126l-0.003,0.008c0,0,1.121,10.084,10.219,10.084c0.353-0.387-5.656-5.523-3.777-9.016  c0.001-0.001,0.004-0.001,0.006-0.003c2.195,0.194,4.414,0.226,6.635,0.074c-7.494-4.104-13.366-11.144-15.76-20.046  c-1.867-6.937-1.335-13.952,1.081-20.168c1.558-0.052,3.133-0.276,4.702-0.698c11.045-2.97,17.589-14.332,14.622-25.376  C59.462,8.722,48.1,2.177,37.056,5.146z"/>
<path d="M63.967,77.418c4.643-0.136,9.438-2.272,9.438-2.272c4.475-2.279,8.234-5.533,11.139-9.423l0,0  c0,0,11.124-0.535,14.721-8.654c0,0-8.884,1.133-8.861-3.931l0,0c1.282-5.366,1.334-11.13-0.036-16.826  c-2.419-10.061-9.07-17.993-17.604-22.375l0.005-0.004c0,0,0.991-8.055-6.089-9.738c-0.345,0.236,3.382,5.344,1.273,7.713  c-0.002,0.002-0.005,0.001-0.007,0.002c-1.67-0.558-3.393-0.991-5.148-1.285c5.073,4.581,8.341,11.143,8.559,18.515  c0.166,5.742-1.543,11.103-4.574,15.493c-1.221-0.247-2.487-0.365-3.787-0.327c-9.143,0.268-16.338,7.897-16.071,17.042  C47.191,70.491,54.821,77.687,63.967,77.418z"/>
</svg>