<svg height='300px' width='300px'  fill="#000000" xmlns:dc="http://purl.org/dc/elements/1.1/" xmlns:cc="http://creativecommons.org/ns#" xmlns:rdf="http://www.w3.org/1999/02/22-rdf-syntax-ns#" xmlns:svg="http://www.w3.org/2000/svg" xmlns="http://www.w3.org/2000/svg" xmlns:sodipodi="http://sodipodi.sourceforge.net/DTD/sodipodi-0.dtd" xmlns:inkscape="http://www.inkscape.org/namespaces/inkscape" viewBox="0 0 1172.5026 1101.2501" version="1.1" x="0px" y="0px"><g transform="translate(637.38889,468.40649)"><path style="" d="m -126.76393,482.50847 -149.99996,-150.3349 -180.3125,0.023 -180.3125,0.022 0,-250.000002 0,-249.999998 180.3125,0.0224 180.3125,0.0224 149.99996,-150.33494 150.000003,-150.33492 0.31529,275.3125 c 0.17341,151.421868 0.17341,399.20312 0,550.62502 l -0.31529,275.3126 -150.000003,-150.3349 z m 287.1828,-233.10713 -40.30539,-40.3197 62.4988,-62.48942 c 34.37433,-34.36918 62.49879,-63.337382 62.49879,-64.373792 0,-1.03641 -28.12446,-30.00461 -62.49879,-64.37379 l -62.4988,-62.48943 40.30539,-40.31969 40.30539,-40.319698 62.5105,62.501288 c 34.38077,34.37573 63.3543,62.5013205 64.3856,62.5013205 1.0313,0 29.99532,-28.1244705 64.3645,-62.4987905 l 62.48942,-62.498798 40.3197,40.305388 40.3197,40.30538 -62.5013,62.51051 c -34.37572,34.38077 -62.50131,63.3543 -62.50131,64.3856 0,1.0313 28.12446,29.995322 62.49879,64.364502 l 62.4988,62.48942 -40.30539,40.3197 -40.30539,40.31973 -62.5105,-62.50133 c -34.38077,-34.37572 -63.35011,-62.50131 -64.37631,-62.50131 -1.0262,0 -29.99554,28.12559 -64.37631,62.50131 l -62.5105,62.50133 -40.30539,-40.31973 z" fill="#000000"></path></g></svg>